HIERARCHY
ROOT Hips
{
	OFFSET 0.00000 0.00000 0.00000
	CHANNELS 6 Xposition Yposition Zposition Zrotation Yrotation Xrotation 
	JOINT RightUpLegDummy
	{
		OFFSET 0 0 0
		CHANNELS 3 Zrotation Yrotation Xrotation
		JOINT RightUpLeg
		{
			OFFSET -3.52197 -3.41223 0.04002
			CHANNELS 3 Zrotation Yrotation Xrotation
			JOINT RightLeg
			{
				OFFSET 0.00006 -17.42390 1.60435
				CHANNELS 3 Zrotation Yrotation Xrotation
				JOINT RightFoot
				{
					OFFSET 0.06153 -16.50078 -1.63901
					CHANNELS 3 Zrotation Yrotation Xrotation
					JOINT RightToes
					{
						OFFSET 0.00298 -1.73825 3.34613
						CHANNELS 3 Zrotation Yrotation Xrotation
						End Site
						{
							OFFSET 0.00480 -0.05416 3.85043
						}
					}
				}
			}
		}
	}
	JOINT SpineDummy
	{
		OFFSET 0 0 0
		CHANNELS 3 Zrotation Yrotation Xrotation
		JOINT Spine
		{
			OFFSET 0.00000 4.68130 0.00000
			CHANNELS 3 Zrotation Yrotation Xrotation
			JOINT Spine1
			{
				OFFSET -0.00000 10.10138 0.05002
				CHANNELS 3 Zrotation Yrotation Xrotation
				JOINT HEadDummy
				{
					OFFSET 0 0 0
					CHANNELS 3 Zrotation Yrotation Xrotation
					JOINT Head
					{
						OFFSET -0.00000 3.43865 0.00438
						CHANNELS 3 Zrotation Yrotation Xrotation
						End Site
						{
							OFFSET -0.11417 5.02924 0.98962
						}
					}
				}
				JOINT LeftShoulder1Dummy
				{
					OFFSET 0 0 0
					CHANNELS 3 Zrotation Yrotation Xrotation
					JOINT LeftShoulder1
					{
						OFFSET 3.53937 -0.14262 -0.08662
						CHANNELS 3 Zrotation Yrotation Xrotation
						JOINT LeftArm
						{
							OFFSET 4.04833 -0.00133 0.12681
							CHANNELS 3 Zrotation Yrotation Xrotation
							JOINT LeftForeArm
							{
								OFFSET 10.33880 -0.01036 -0.55515
								CHANNELS 3 Zrotation Yrotation Xrotation
								JOINT LeftHand
								{
									OFFSET 8.69677 0.07543 0.40060
									CHANNELS 3 Zrotation Yrotation Xrotation
									End Site
									{
										OFFSET 5.28377 -0.21905 0.59205
									}
								}
							}
						}
					}
				}
				JOINT RightShoulderDummy
				{
					OFFSET 0 0 0
					CHANNELS 3 Zrotation Yrotation Xrotation
					JOINT RightShoulder
					{
						OFFSET -3.53937 -0.14262 -0.08660
						CHANNELS 3 Zrotation Yrotation Xrotation
						JOINT RightArm
						{
							OFFSET -4.04833 -0.00133 0.12683
							CHANNELS 3 Zrotation Yrotation Xrotation
							JOINT RightForeArm
							{
								OFFSET -10.37987 -0.01039 -0.55511
								CHANNELS 3 Zrotation Yrotation Xrotation
								JOINT RightHand
								{
									OFFSET -8.67398 0.07538 0.40058
									CHANNELS 3 Zrotation Yrotation Xrotation
									End Site
									{
										OFFSET -5.24810 -0.21916 0.59204
									}
								}
							}
						}
					}
				}
			}
		}
	}
	JOINT LeftUpLegDummy
	{
		OFFSET 0 0 0
		CHANNELS 3 Zrotation Yrotation Xrotation
		JOINT LeftUpLeg
		{
			OFFSET 3.52197 -3.41223 0.04002
			CHANNELS 3 Zrotation Yrotation Xrotation
			JOINT LeftLeg
			{
				OFFSET -0.00012 -17.42399 1.60337
				CHANNELS 3 Zrotation Yrotation Xrotation
				JOINT LeftFoot
				{
					OFFSET -0.09972 -16.50070 -1.63802
					CHANNELS 3 Zrotation Yrotation Xrotation
					JOINT LeftToes
					{
						OFFSET -0.01575 -1.73823 3.34611
						CHANNELS 3 Zrotation Yrotation Xrotation
						End Site
						{
							OFFSET 0.03150 -0.01868 3.85031
						}
					}
				}
			}
		}
	}
}
MOTION
Frames: 9
Frame Time: 0.033333
-1.7236 40.0121 79.1924 -178.7530 1.8245 178.6740 0.0000 0.0000 0.0000 4.2547 0.3738 -0.7770 -1.1362 -2.3152 5.1860 -3.8240 0.2302 -3.4310 0.0000 -0.0000 -0.0000 0.0000 0.0000 0.0000 0.3495 0.3090 -0.0922 3.0518 -0.3417 2.2539 -0.0000 0.0000 -0.0000 1.2763 0.3966 -8.2251 -0.0000 0.0000 -0.0000 -34.4491 -2.6624 2.4904 -44.3913 -15.3196 -16.9715 -10.5867 5.0240 51.3333 15.4031 -3.8414 -1.1969 -0.0000 0.0000 -0.0000 34.7739 5.1372 3.5243 40.5593 5.7274 -16.5605 10.6258 -0.0249 24.9989 -10.4322 2.0294 -0.6451 0.0000 0.0000 0.0000 0.9063 1.4654 0.2892 -0.4424 -2.5131 6.7784 3.5466 -0.1166 -6.0940 0.0000 0.0000 -0.0000
-1.7236 40.0121 79.1829 -178.7370 1.8519 178.7730 0.0000 0.0000 0.0000 4.2511 0.3738 -0.8832 -1.1035 -2.2802 5.2126 -3.8253 0.2303 -3.4563 0.0000 -0.0000 -0.0000 0.0000 0.0000 0.0000 0.3136 0.2744 -0.2137 3.1406 -0.3963 2.3192 -0.0000 0.0000 -0.0000 1.3462 0.5969 -8.1603 -0.0000 0.0000 -0.0000 -34.5012 -2.6376 2.4904 -44.3702 -15.3821 -16.9888 -10.5728 5.0306 51.3453 15.4681 -3.8919 -1.2086 -0.0000 0.0000 -0.0000 34.7268 5.1372 3.5210 40.5554 5.7960 -16.5432 10.6248 -0.1016 25.0582 -10.2880 2.1645 -0.6505 0.0000 0.0000 0.0000 0.9160 1.4592 0.1712 -0.4320 -2.4883 6.8420 3.5586 -0.1174 -6.1559 0.0000 0.0000 -0.0000
-1.7236 40.0121 79.1553 -178.7400 2.0166 178.8710 0.0000 0.0000 0.0000 4.2330 0.3738 -0.9703 -1.0539 -2.1004 5.2548 -3.8352 0.2311 -3.5054 0.0000 -0.0000 -0.0000 0.0000 0.0000 0.0000 0.2757 0.2791 -0.3793 3.2406 -0.4145 2.4459 -0.0000 0.0000 -0.0000 1.4015 0.9394 -8.1761 -0.0000 0.0000 -0.0000 -34.6552 -2.6282 2.4954 -44.2730 -15.4456 -16.9432 -10.6040 5.0334 51.2087 15.5983 -3.9967 -1.2325 -0.0000 0.0000 -0.0000 34.5999 5.1299 3.5068 40.6126 5.9197 -16.5947 10.5949 -0.3221 25.2537 -10.1505 2.3552 -0.6584 0.0000 0.0000 0.0000 0.9325 1.5073 0.1362 -0.4672 -2.3790 6.8332 3.5806 -0.1188 -6.2150 0.0000 0.0000 -0.0000
-1.7236 40.0121 79.1138 -178.7620 2.2279 178.8690 0.0000 0.0000 0.0000 4.2147 0.3786 -0.9089 -1.0424 -1.8951 5.2606 -3.8519 0.2324 -3.5600 0.0000 -0.0000 -0.0000 0.0000 0.0000 0.0000 0.2596 0.3554 -0.4267 3.2841 -0.3455 2.5003 -0.0000 0.0000 -0.0000 1.3991 1.1828 -8.3257 -0.0000 0.0000 -0.0000 -34.7692 -2.6440 2.5089 -44.2484 -15.4187 -16.7512 -10.7124 5.0413 50.9077 15.6008 -3.8766 -1.2174 -0.0000 0.0000 -0.0000 34.4586 5.1052 3.4844 40.7411 5.9008 -16.6921 10.5591 -0.4776 25.4487 -10.1983 2.4330 -0.6671 0.0000 0.0000 0.0000 0.9703 1.6220 0.2859 -0.5715 -2.2913 6.7279 3.5917 -0.1195 -6.2365 0.0000 0.0000 -0.0000
-1.7236 40.0121 79.0700 -178.7590 2.2852 178.8570 0.0000 0.0000 0.0000 4.2373 0.4139 -0.8017 -1.0827 -1.8759 5.2174 -3.8328 0.2313 -3.6057 0.0000 -0.0000 -0.0000 0.0000 0.0000 0.0000 0.2762 0.4290 -0.4085 3.2511 -0.2621 2.4587 -0.0000 0.0000 -0.0000 1.4100 1.0973 -8.5003 -0.0000 0.0000 -0.0000 -34.6715 -2.6767 2.5162 -44.4083 -15.3980 -16.5429 -10.7966 5.0451 50.7491 15.5035 -3.6272 -1.1778 -0.0000 0.0000 -0.0000 34.4886 5.0920 3.4817 40.7914 5.6163 -16.6957 10.5731 -0.3078 25.3809 -10.3437 2.3191 -0.6676 0.0000 0.0000 0.0000 1.0412 1.7408 0.4179 -0.6975 -2.3614 6.6591 3.5624 -0.1176 -6.2604 0.0000 0.0000 -0.0000
-1.7236 40.0121 79.0327 -178.7450 2.1531 178.9350 0.0000 0.0000 0.0000 4.2610 0.4422 -0.8035 -1.1287 -2.0292 5.1850 -3.7754 0.2277 -3.6486 0.0000 -0.0000 -0.0000 0.0000 0.0000 0.0000 0.2937 0.4277 -0.4759 3.1793 -0.2496 2.4585 -0.0000 0.0000 -0.0000 1.4891 0.7700 -8.5823 -0.0000 0.0000 -0.0000 -34.4238 -2.7209 2.5159 -44.6293 -15.5332 -16.4790 -10.7904 5.0423 50.8423 15.5176 -3.6105 -1.1769 -0.0000 0.0000 -0.0000 34.6902 5.1084 3.5059 40.7086 5.2883 -16.6079 10.6263 0.0173 25.0651 -10.3876 2.1542 -0.6571 0.0000 0.0000 0.0000 1.0982 1.8023 0.3802 -0.7966 -2.5531 6.6667 3.5224 -0.1151 -6.2873 0.0000 0.0000 -0.0000
-1.7256 40.0121 79.0015 -178.7750 1.9815 179.0520 0.0000 0.0000 0.0000 4.2162 0.4162 -0.8920 -1.1424 -2.1612 5.2171 -3.7401 0.2256 -3.7085 0.0000 -0.0000 -0.0000 0.0000 0.0000 0.0000 0.2374 0.3628 -0.6132 3.1850 -0.3179 2.5663 -0.0000 0.0000 -0.0000 1.5681 0.5646 -8.5881 -0.0000 0.0000 -0.0000 -34.2606 -2.7500 2.5122 -44.7433 -15.7646 -16.5176 -10.7586 5.0418 50.8739 15.6376 -3.7900 -1.2092 -0.0000 0.0000 -0.0000 34.7991 5.1220 3.5210 40.6563 5.2597 -16.5911 10.6537 0.0311 24.8223 -10.3027 2.2385 -0.6583 0.0000 0.0000 0.0000 1.0841 1.8076 0.2835 -0.8676 -2.7201 6.6618 3.5414 -0.1159 -6.2723 0.0000 0.0000 -0.0000
-1.7289 40.0121 78.9701 -178.8440 1.8849 179.1030 0.0000 0.0000 0.0000 4.1277 0.3550 -0.9238 -1.1393 -2.1907 5.2761 -3.7542 0.2267 -3.7835 0.0000 -0.0000 -0.0000 0.0000 0.0000 0.0000 0.1135 0.2898 -0.6500 3.3149 -0.4151 2.6281 -0.0000 0.0000 -0.0000 1.5480 0.6386 -8.6114 -0.0000 0.0000 -0.0000 -34.2810 -2.7344 2.5085 -44.7587 -15.8720 -16.5479 -10.7584 5.0475 50.6869 15.6267 -3.8017 -1.2099 -0.0000 0.0000 -0.0000 34.6938 5.1073 3.5058 40.7456 5.4880 -16.7055 10.6330 -0.3175 24.8365 -10.2274 2.6339 -0.6852 0.0000 0.0000 0.0000 1.0190 1.7916 0.2814 -0.9138 -2.7965 6.6201 3.6164 -0.1201 -6.2294 0.0000 0.0000 -0.0000
-1.7328 40.0121 78.9327 -178.8880 1.8565 179.0890 0.0000 0.0000 0.0000 4.0716 0.3063 -0.8539 -1.1376 -2.1745 5.2924 -3.7715 0.2281 -3.8518 0.0000 -0.0000 -0.0000 0.0000 0.0000 0.0000 0.0675 0.2487 -0.5298 3.4133 -0.4715 2.4971 -0.0000 0.0000 -0.0000 1.4617 0.7714 -8.6684 -0.0000 0.0000 -0.0000 -34.3852 -2.7011 2.5084 -44.7376 -15.7992 -16.6211 -10.7257 5.0493 50.6396 15.4600 -3.6415 -1.1762 -0.0000 0.0000 -0.0000 34.5882 5.0944 3.4913 40.8564 5.5842 -16.8232 10.5968 -0.5430 24.9573 -10.2063 2.9585 -0.7098 0.0000 0.0000 0.0000 0.9593 1.7599 0.3592 -0.9045 -2.7950 6.5985 3.6648 -0.1224 -6.2237 0.0000 0.0000 -0.0000
